<mxfile host="app.diagrams.net">
  <diagram name="Page-1" id="c7558073-1559-34b1-7f7d-6b8b5c839a25">
    <mxGraphModel dx="1426" dy="794" grid="1" gridSize="10" guides="1" tooltips="1" connect="1" arrows="1" fold="1" page="1" pageScale="1" pageWidth="850" pageHeight="1100" math="0" shadow="0">
      <root>
        <!-- Database Title -->
        <mxCell id="title" value="Bookstore Database Schema" style="text;strokeColor=none;fillColor=none;align=center;fontSize=24;fontStyle=1;verticalAlign=middle;spacingTop=-5;" vertex="1" parent="1">
          <mxGeometry x="350" y="40" width="160" height="40" as="geometry"/>
        </mxCell>

        <!-- PUBLISHER TABLE -->
        <mxCell id="publisher" value="Publisher" style="shape=table;startSize=30;container=1;collapsible=1;childLayout=tableLayout;fixedRows=1;rowLines=0;fontStyle=1;align=center;resizeLast=1;fillColor=#dae8fc;strokeColor=#6c8ebf;" vertex="1" parent="1">
          <mxGeometry x="40" y="120" width="200" height="150" as="geometry"/>
        </mxCell>
        <mxCell id="publisher-pk" value="" style="shape=partialRectangle;collapsible=0;dropTarget=0;pointerEvents=0;fillColor=none;points=[[0,0.5],[1,0.5]];portConstraint=eastwest;top=0;left=0;right=0;bottom=1;" vertex="1" parent="publisher">
          <mxGeometry y="30" width="200" height="30" as="geometry"/>
        </mxCell>
        <mxCell id="publisher-pk-label" value="PK" style="shape=partialRectangle;overflow=hidden;connectable=0;fillColor=none;top=0;left=0;bottom=0;right=0;fontStyle=1;" vertex="1" parent="publisher-pk">
          <mxGeometry width="30" height="30" as="geometry"/>
        </mxCell>
        <mxCell id="publisher-id" value="publisher_id INT" style="shape=partialRectangle;overflow=hidden;connectable=0;fillColor=none;top=0;left=0;bottom=0;right=0;align=left;spacingLeft=6;" vertex="1" parent="publisher-pk">
          <mxGeometry x="30" width="170" height="30" as="geometry"/>
        </mxCell>
        <mxCell id="publisher-name" value="publisher_name VARCHAR(100) NOT NULL UNIQUE" style="shape=partialRectangle;overflow=hidden;connectable=0;fillColor=none;top=0;left=0;bottom=0;right=0;align=left;spacingLeft=6;" vertex="1" parent="publisher">
          <mxGeometry y="60" width="200" height="30" as="geometry"/>
        </mxCell>
        <mxCell id="publisher-founded" value="founded_year SMALLINT" style="shape=partialRectangle;overflow=hidden;connectable=0;fillColor=none;top=0;left=0;bottom=0;right=0;align=left;spacingLeft=6;" vertex="1" parent="publisher">
          <mxGeometry y="90" width="200" height="30" as="geometry"/>
        </mxCell>
        <mxCell id="publisher-hq" value="headquarters VARCHAR(100)" style="shape=partialRectangle;overflow=hidden;connectable=0;fillColor=none;top=0;left=0;bottom=0;right=0;align=left;spacingLeft=6;" vertex="1" parent="publisher">
          <mxGeometry y="120" width="200" height="30" as="geometry"/>
        </mxCell>

        <!-- BOOK_LANGUAGE TABLE -->
        <mxCell id="language" value="book_language" style="shape=table;startSize=30;container=1;collapsible=1;childLayout=tableLayout;fixedRows=1;rowLines=0;fontStyle=1;align=center;resizeLast=1;fillColor=#d5e8d4;strokeColor=#82b366;" vertex="1" parent="1">
          <mxGeometry x="40" y="320" width="200" height="120" as="geometry"/>
        </mxCell>
        <mxCell id="language-pk" value="" style="shape=partialRectangle;collapsible=0;dropTarget=0;pointerEvents=0;fillColor=none;points=[[0,0.5],[1,0.5]];portConstraint=eastwest;top=0;left=0;right=0;bottom=1;" vertex="1" parent="language">
          <mxGeometry y="30" width="200" height="30" as="geometry"/>
        </mxCell>
        <mxCell id="language-pk-label" value="PK" style="shape=partialRectangle;overflow=hidden;connectable=0;fillColor=none;top=0;left=0;bottom=0;right=0;fontStyle=1;" vertex="1" parent="language-pk">
          <mxGeometry width="30" height="30" as="geometry"/>
        </mxCell>
        <mxCell id="language-id" value="language_id SMALLINT" style="shape=partialRectangle;overflow=hidden;connectable=0;fillColor=none;top=0;left=0;bottom=0;right=0;align=left;spacingLeft=6;" vertex="1" parent="language-pk">
          <mxGeometry x="30" width="170" height="30" as="geometry"/>
        </mxCell>
        <mxCell id="language-code" value="language_code CHAR(2) NOT NULL UNIQUE" style="shape=partialRectangle;overflow=hidden;connectable=0;fillColor=none;top=0;left=0;bottom=0;right=0;align=left;spacingLeft=6;" vertex="1" parent="language">
          <mxGeometry y="60" width="200" height="30" as="geometry"/>
        </mxCell>
        <mxCell id="language-name" value="language_name VARCHAR(50) NOT NULL UNIQUE" style="shape=partialRectangle;overflow=hidden;connectable=0;fillColor=none;top=0;left=0;bottom=0;right=0;align=left;spacingLeft=6;" vertex="1" parent="language">
          <mxGeometry y="90" width="200" height="30" as="geometry"/>
        </mxCell>

        <!-- AUTHOR TABLE -->
        <mxCell id="author" value="author" style="shape=table;startSize=30;container=1;collapsible=1;childLayout=tableLayout;fixedRows=1;rowLines=0;fontStyle=1;align=center;resizeLast=1;fillColor=#f8cecc;strokeColor=#b85450;" vertex="1" parent="1">
          <mxGeometry x="600" y="120" width="200" height="180" as="geometry"/>
        </mxCell>
        <mxCell id="author-pk" value="" style="shape=partialRectangle;collapsible=0;dropTarget=0;pointerEvents=0;fillColor=none;points=[[0,0.5],[1,0.5]];portConstraint=eastwest;top=0;left=0;right=0;bottom=1;" vertex="1" parent="author">
          <mxGeometry y="30" width="200" height="30" as="geometry"/>
        </mxCell>
        <mxCell id="author-pk-label" value="PK" style="shape=partialRectangle;overflow=hidden;connectable=0;fillColor=none;top=0;left=0;bottom=0;right=0;fontStyle=1;" vertex="1" parent="author-pk">
          <mxGeometry width="30" height="30" as="geometry"/>
        </mxCell>
        <mxCell id="author-id" value="author_id INT" style="shape=partialRectangle;overflow=hidden;connectable=0;fillColor=none;top=0;left=0;bottom=0;right=0;align=left;spacingLeft=6;" vertex="1" parent="author-pk">
          <mxGeometry x="30" width="170" height="30" as="geometry"/>
        </mxCell>
        <mxCell id="author-name" value="author_name VARCHAR(100) NOT NULL" style="shape=partialRectangle;overflow=hidden;connectable=0;fillColor=none;top=0;left=0;bottom=0;right=0;align=left;spacingLeft=6;" vertex="1" parent="author">
          <mxGeometry y="60" width="200" height="30" as="geometry"/>
        </mxCell>
        <mxCell id="author-birth" value="birth_date DATE" style="shape=partialRectangle;overflow=hidden;connectable=0;fillColor=none;top=0;left=0;bottom=0;right=0;align=left;spacingLeft=6;" vertex="1" parent="author">
          <mxGeometry y="90" width="200" height="30" as="geometry"/>
        </mxCell>
        <mxCell id="author-death" value="death_date DATE" style="shape=partialRectangle;overflow=hidden;connectable=0;fillColor=none;top=0;left=0;bottom=0;right=0;align=left;spacingLeft=6;" vertex="1" parent="author">
          <mxGeometry y="120" width="200" height="30" as="geometry"/>
        </mxCell>
        <mxCell id="author-nationality" value="nationality VARCHAR(50)" style="shape=partialRectangle;overflow=hidden;connectable=0;fillColor=none;top=0;left=0;bottom=0;right=0;align=left;spacingLeft=6;" vertex="1" parent="author">
          <mxGeometry y="150" width="200" height="30" as="geometry"/>
        </mxCell>

        <!-- BOOK TABLE -->
        <mxCell id="book" value="book" style="shape=table;startSize=30;container=1;collapsible=1;childLayout=tableLayout;fixedRows=1;rowLines=0;fontStyle=1;align=center;resizeLast=1;fillColor=#e1d5e7;strokeColor=#9673a6;" vertex="1" parent="1">
          <mxGeometry x="300" y="120" width="240" height="270" as="geometry"/>
        </mxCell>
        <mxCell id="book-pk" value="" style="shape=partialRectangle;collapsible=0;dropTarget=0;pointerEvents=0;fillColor=none;points=[[0,0.5],[1,0.5]];portConstraint=eastwest;top=0;left=0;right=0;bottom=1;" vertex="1" parent="book">
          <mxGeometry y="30" width="240" height="30" as="geometry"/>
        </mxCell>
        <mxCell id="book-pk-label" value="PK" style="shape=partialRectangle;overflow=hidden;connectable=0;fillColor=none;top=0;left=0;bottom=0;right=0;fontStyle=1;" vertex="1" parent="book-pk">
          <mxGeometry width="30" height="30" as="geometry"/>
        </mxCell>
        <mxCell id="book-id" value="book_id INT" style="shape=partialRectangle;overflow=hidden;connectable=0;fillColor=none;top=0;left=0;bottom=0;right=0;align=left;spacingLeft=6;" vertex="1" parent="book-pk">
          <mxGeometry x="30" width="210" height="30" as="geometry"/>
        </mxCell>
        <mxCell id="book-title" value="title VARCHAR(200) NOT NULL" style="shape=partialRectangle;overflow=hidden;connectable=0;fillColor=none;top=0;left=0;bottom=0;right=0;align=left;spacingLeft=6;" vertex="1" parent="book">
          <mxGeometry y="60" width="240" height="30" as="geometry"/>
        </mxCell>
        <mxCell id="book-isbn" value="isbn VARCHAR(17) NOT NULL UNIQUE" style="shape=partialRectangle;overflow=hidden;connectable=0;fillColor=none;top=0;left=0;bottom=0;right=0;align=left;spacingLeft=6;" vertex="1" parent="book">
          <mxGeometry y="90" width="240" height="30" as="geometry"/>
        </mxCell>
        <mxCell id="book-price" value="price DECIMAL(10,2) NOT NULL" style="shape=partialRectangle;overflow=hidden;connectable=0;fillColor=none;top=0;left=0;bottom=0;right=0;align=left;spacingLeft=6;" vertex="1" parent="book">
          <mxGeometry y="120" width="240" height="30" as="geometry"/>
        </mxCell>
        <mxCell id="book-pages" value="num_pages SMALLINT UNSIGNED" style="shape=partialRectangle;overflow=hidden;connectable=0;fillColor=none;top=0;left=0;bottom=0;right=0;align=left;spacingLeft=6;" vertex="1" parent="book">
          <mxGeometry y="150" width="240" height="30" as="geometry"/>
        </mxCell>
        <mxCell id="book-pubid" value="publisher_id INT NOT NULL (FK)" style="shape=partialRectangle;overflow=hidden;connectable=0;fillColor=none;top=0;left=0;bottom=0;right=0;align=left;spacingLeft=6;fontStyle=4;" vertex="1" parent="book">
          <mxGeometry y="180" width="240" height="30" as="geometry"/>
        </mxCell>
        <mxCell id="book-langid" value="language_id SMALLINT NOT NULL (FK)" style="shape=partialRectangle;overflow=hidden;connectable=0;fillColor=none;top=0;left=0;bottom=0;right=0;align=left;spacingLeft=6;fontStyle=4;" vertex="1" parent="book">
          <mxGeometry y="210" width="240" height="30" as="geometry"/>
        </mxCell>
        <mxCell id="book-created" value="created_at TIMESTAMP" style="shape=partialRectangle;overflow=hidden;connectable=0;fillColor=none;top=0;left=0;bottom=0;right=0;align=left;spacingLeft=6;" vertex="1" parent="book">
          <mxGeometry y="240" width="240" height="30" as="geometry"/>
        </mxCell>

        <!-- BOOK_AUTHOR TABLE -->
        <mxCell id="book_author" value="book_author" style="shape=table;startSize=30;container=1;collapsible=1;childLayout=tableLayout;fixedRows=1;rowLines=0;fontStyle=1;align=center;resizeLast=1;fillColor=#fff2cc;strokeColor=#d6b656;" vertex="1" parent="1">
          <mxGeometry x="300" y="420" width="240" height="120" as="geometry"/>
        </mxCell>
        <mxCell id="book_author-pk1" value="book_id INT (FK)" style="shape=partialRectangle;overflow=hidden;connectable=0;fillColor=none;top=0;left=0;bottom=0;right=0;align=left;spacingLeft=6;fontStyle=4;" vertex="1" parent="book_author">
          <mxGeometry y="30" width="240" height="30" as="geometry"/>
        </mxCell>
        <mxCell id="book_author-pk2" value="author_id INT (FK)" style="shape=partialRectangle;overflow=hidden;connectable=0;fillColor=none;top=0;left=0;bottom=0;right=0;align=left;spacingLeft=6;fontStyle=4;" vertex="1" parent="book_author">
          <mxGeometry y="60" width="240" height="30" as="geometry"/>
        </mxCell>
        <mxCell id="book_author-role" value="contribution_type ENUM(...)" style="shape=partialRectangle;overflow=hidden;connectable=0;fillColor=none;top=0;left=0;bottom=0;right=0;align=left;spacingLeft=6;" vertex="1" parent="book_author">
          <mxGeometry y="90" width="240" height="30" as="geometry"/>
        </mxCell>

        <!-- RELATIONSHIPS -->
        <!-- Publisher to Book (1-to-many) -->
        <mxCell id="rel-publisher-book" value="" style="endArrow=ERoneToMany;startArrow=ERone;dashed=1;strokeWidth=2;rounded=0;jumpStyle=arc;strokeColor=#6c8ebf;" edge="1" parent="1" source="publisher" target="book">
          <mxGeometry width="100" height="100" relative="1" as="geometry">
            <mxPoint x="240" y="210" as="sourcePoint"/>
            <mxPoint x="300" y="210" as="targetPoint"/>
          </mxGeometry>
        </mxCell>

        <!-- Language to Book (1-to-many) -->
        <mxCell id="rel-language-book" value="" style="endArrow=ERoneToMany;startArrow=ERone;dashed=1;strokeWidth=2;rounded=0;jumpStyle=arc;strokeColor=#82b366;" edge="1" parent="1" source="language" target="book">
          <mxGeometry width="100" height="100" relative="1" as="geometry">
            <mxPoint x="240" y="380" as="sourcePoint"/>
            <mxPoint x="300" y="240" as="targetPoint"/>
          </mxGeometry>
        </mxCell>

        <!-- Book to Book_Author (1-to-many) -->
        <mxCell id="rel-book-bookauthor" value="" style="endArrow=ERoneToMany;startArrow=ERone;dashed=1;strokeWidth=2;rounded=0;jumpStyle=arc;strokeColor=#9673a6;" edge="1" parent="1" source="book" target="book_author">
          <mxGeometry width="100" height="100" relative="1" as="geometry">
            <mxPoint x="420" y="390" as="sourcePoint"/>
            <mxPoint x="420" y="420" as="targetPoint"/>
          </mxGeometry>
        </mxCell>

        <!-- Author to Book_Author (1-to-many) -->
        <mxCell id="rel-author-bookauthor" value="" style="endArrow=ERoneToMany;startArrow=ERone;dashed=1;strokeWidth=2;rounded=0;jumpStyle=arc;strokeColor=#b85450;" edge="1" parent="1" source="author" target="book_author">
          <mxGeometry width="100" height="100" relative="1" as="geometry">
            <mxPoint x="600" y="300" as="sourcePoint"/>
            <mxPoint x="420" y="480" as="targetPoint"/>
          </mxGeometry>
        </mxCell>

        <!-- Legend -->
        <mxCell id="legend" value="Relationship Legend" style="text;strokeColor=none;fillColor=none;align=left;fontSize=12;fontStyle=1;verticalAlign=middle;spacingLeft=5;" vertex="1" parent="1">
          <mxGeometry x="600" y="400" width="120" height="20" as="geometry"/>
        </mxCell>
        <mxCell id="legend-one" value="1" style="shape=ERone;fillColor=#000000;strokeColor=#000000;" vertex="1" parent="1">
          <mxGeometry x="600" y="430" width="20" height="20" as="geometry"/>
        </mxCell>
        <mxCell id="legend-one-label" value="One" style="text;strokeColor=none;fillColor=none;align=left;fontSize=12;verticalAlign=middle;spacingLeft=5;" vertex="1" parent="1">
          <mxGeometry x="625" y="430" width="40" height="20" as="geometry"/>
        </mxCell>
        <mxCell id="legend-many" value="∞" style="shape=ERzeroToMany;fillColor=#000000;strokeColor=#000000;" vertex="1" parent="1">
          <mxGeometry x="600" y="460" width="20" height="20" as="geometry"/>
        </mxCell>
        <mxCell id="legend-many-label" value="Many" style="text;strokeColor=none;fillColor=none;align=left;fontSize=12;verticalAlign=middle;spacingLeft=5;" vertex="1" parent="1">
          <mxGeometry x="625" y="460" width="40" height="20" as="geometry"/>
        </mxCell>
      </root>
    </mxGraphModel>
  </diagram>
</mxfile>
